<?xml version="1.0" ?><svg viewBox="0 0 64 64" xmlns="http://www.w3.org/2000/svg"><path d="M49.153 51.468c-.163-.246 2.124-1.147 2.94-1.72.818-.573 2.288-2.293 1.553-5.487-.735-3.193-5.963-11.875-5.963-11.875s1.797-.9 2.042-1.884c.245-.982-4.247-7.862-4.492-7.862-.245 0-2.37.82-2.37.82l-1.796-2.704c.327-1.72 1.307-6.47-3.267-13.35S19.422-2.588 13.95 2.572C8.476 7.732 3.9 15.348 7.005 24.194s12.252 9.5 12.252 9.5 1.715 1.475 4.166 3.932c2.45 2.457 14.13 13.514 16.418 14.906 2.287 1.392 7.188-.082 7.515 0 .327.082 7.596 10.73 8.005 11.303.408.573 1.39-.49 1.634-.983s-7.68-11.14-7.843-11.384zm-4.166-26.455c.327.164 2.94 5.078 2.45 5.324s-.286.737-.653.164c-.368-.572-3.022-4.75-2.94-5.118.052-.234.817-.533 1.143-.37zm-6.738-8.56c.08.247.285 3.85-.083 3.81-.368-.042-2.655-1.72-2.777-1.885-.074-.098 1.552-1.474 2.083-1.72.53-.245.694-.45.776-.204zm-8.578 0c-.286-.122-3.063-.49-3.145-.613-.253-.38 1.593-3.604 1.593-3.604s3.47.45 3.47.655c.002.206-1.632 3.687-1.918 3.564zm3.717-3.07c.356-.2 3.756 1.72 3.715 1.843-.04.123-1.552.573-2.246 1.474-.695.9-.777 1.147-.94 1.147-.163 0-2.736-1.065-2.736-1.27 0-.205 1.837-2.99 2.205-3.194zm-5.882-2.785c-.408.123-4.574.287-4.615.04-.04-.245 1.797-3.52 2.124-3.726 0 0 4.33.49 4.33.82 0 .327-1.43 2.743-1.84 2.866zm-1.062 1.515c.327.205-1.39 3.81-1.674 3.89-.286.082-3.84.41-4.002-.04-.163-.45.898-3.4 1.062-3.564.364-.366 4.287-.49 4.614-.287zm-.613 5.774c.146-.073 3.063-.082 3.104.205.04.287-1.184 3.522-1.184 3.522s-2.736-.49-2.86-.778c-.12-.287.695-2.826.94-2.95zm3.104 6.102c.204 0 2.246.9 2.246 1.146s-.776 4.3-1.02 4.26-1.92-1.352-2.043-1.516c-.27-.36.613-3.89.817-3.89zm.286-1.72c-.082-.41 1.103-3.687 1.43-3.973.186-.164 2.245 1.024 2.245 1.147s-1.062 3.686-1.348 3.686c-.285 0-2.245-.45-2.327-.86zm3.472 3.603c.15-.076 1.593.9 1.39 1.474-.205.573-1.675 1.68-1.92 1.556-.246-.122.04-2.784.53-3.03zm.163-2.13c-.04-.41 1.39-3.85 1.797-3.808.296.03 2.98 1.802 2.98 2.334 0 .53-2.082 3.562-2.327 3.562-.245 0-2.41-1.68-2.45-2.09zm3.757-12.98c.368.245 1.144 2.21 1.144 2.456 0 .245-3.105-1.025-3.268-1.23-.138-.172 1.756-1.474 2.123-1.228zm-5.31-2.704c.37 0 4.044 1.023 4.003 1.39-.04.37-2.532 2.05-2.532 2.05s-3.594-.656-3.716-.86c-.123-.206 1.878-2.58 2.246-2.58zm-2.858-3.154s2.124.86 1.838 1.024c-.286.164-.327.287-.653.164-.327-.123-1.47-.41-1.47-.41s-.04-.655.285-.778zm-5.962-.573c.175-.105 3.022.04 2.9.246-.123.204-1.02 1.227-1.39 1.227-.367 0-3.144.246-3.144.246s1.43-1.598 1.635-1.72zm.326 3.4s-1.224 3.152-1.714 3.193c-.49.04-3.104.287-3.104.123 0-.165 1.307-2.827 1.47-2.99.13-.13 3.35-.328 3.35-.328zm-4.98-2.745c.203-.04 1.592-.205 1.592-.205s-.327 1.597-.694 1.802c-.368.205-2.736.49-2.86.37-.375-.378 1.757-1.926 1.96-1.967zm-3.677 4.464c.147-.295 3.226-.655 3.226-.655s-1.104 2.54-1.267 2.62c-.163.083-2.9 1.107-2.98.86-.082-.246.898-2.58 1.02-2.825zm-2.45.737c.245.04.04-.124.245.04.204.164-.49 2.58-.653 2.703-.163.123-1.225.287-1.307.123-.11-.22 1.47-2.908 1.715-2.867zm-1.51 7.41c-.164.042-1.063.083-1.267-.08-.16-.13.082-2.294.286-2.335.204-.04 1.266-.41 1.43-.246.162.163-.287 2.62-.45 2.66zm2.735 8.846c-.327 0-.122.205-.49-.04-.368-.247-1.552-1.23-1.593-1.434-.04-.205.163-1.925.163-2.09 0-.646 2.328-.613 2.45-.368.124.247-.203 3.932-.53 3.932zm.53-5.65c-.162 0-2.123.408-2.286.368-.163-.04.04-1.966.123-2.21.066-.2 2.532-.41 2.532-.288s-.205 2.13-.368 2.13zm-1.592-3.646c-.122-.287.327-2.662.45-2.908.142-.286 3.225-.983 3.225-.86s-1.06 3.235-1.183 3.276c-.122.042-2.368.78-2.49.492zm6.74.983s.08 1.638-.164 1.76c-.245.124-3.145.574-3.186.33-.04-.247.286-1.967.286-1.967.286-.164 3.063-.123 3.063-.123zm-3.636 3.93s3.308-.204 3.308-.08c0 .122.082 3.89-.204 3.848-.286-.04-3.185 0-3.185 0s.04-3.56.08-3.766zm3.47 8.642c-.53-.04-3.103-1.188-3.225-1.474-.123-.286-.163-1.76-.163-1.76.368-.04 3.186-.123 3.308.04.122.165.612 3.236.08 3.195zm.41-14.578c-.408.04-2.94.41-2.94.246s1.184-3.4 1.307-3.645c.173-.348 3.022-.41 3.022-.246-.002.164-.982 3.604-1.39 3.645zM22.566 31.4c-.49.042-2.37-.163-2.41-.327-.04-.164-.122-3.522-.122-3.522.163-.08 2.614.247 2.614.247s.408 3.563-.082 3.604zm-.08-5.363c-.123 0-2.574.164-2.656-.164-.082-.328-.163-3.563-.123-3.81.045-.27 3.145-.08 3.35.33.204.41-.45 3.644-.572 3.644zm-2.452-5.774c-.123-.287-.286-2.048.163-2.457.394-.36 3.88-.246 3.96.04.083.288-.57 2.868-.693 2.868-.122 0-3.307-.165-3.43-.45zm4.574 2.252c.245-.123 2.49.49 2.614.86.122.37-.572 3.93-.572 3.93s-2.328-.86-2.49-1.023c-.32-.318.203-3.644.448-3.767zm-.326 5.57c.21-.127 2.45.94 2.49 1.146.042.206 0 1.803-.122 1.885-.122.082-2.246.49-2.41.123-.163-.37-.163-3.03.042-3.154zM48.5 48.724c-.286.327-3.88 2.047-6.37 1.39-2.492-.654-8.66-7.124-12.376-10.36-3.716-3.235-5.636-5.365-5.513-5.733 0 0 6.29-.983 9.353-2.948 3.063-1.966 6.167-7.085 6.494-6.962.327.123 5.187 9.255 5.064 9.42-.122.163-1.633.04-1.633.163s-.204 1.35.204 1.433c.41.082 2.043-.04 2.37.287.327.328 1.43 2.416 1.266 2.416-.163 0-2.49-.327-2.49-.327s-.287 1.23-.083 1.31c.204.082 3.553.86 3.84 1.106.285.245 1.673 3.644 1.428 3.644-.244 0-4.573-1.556-4.573-1.556s-.408 1.35 0 1.515c.408.164 5.187 2.007 5.35 2.21.163.206-.082 1.803-.368 1.926-.287.122-4.984-1.762-5.106-1.72-.123.04-.49.695-.327 1.064.165.368 3.76 1.392 3.473 1.72zm-17.602-13.35c-.49.04-.94.49-.94.695s4.575 5.488 5.35 5.98c.777.49 1.267-.492 1.43-.86.163-.37-5.62-5.835-5.84-5.816z"/></svg>